<svg width="41" height="40" viewBox="0 0 41 40" fill="none" xmlns="http://www.w3.org/2000/svg">
<path d="M2.6443 18.5575L26.3917 8.54481C28.7358 7.50183 36.6856 4.16427 36.6856 4.16427C36.6856 4.16427 40.3547 2.70408 40.0489 6.25024C39.947 7.71042 39.1316 12.8211 38.3163 18.3489L35.7683 34.7238C35.7683 34.7238 35.5644 37.1227 33.8318 37.5399C32.0992 37.9571 29.2454 36.0797 28.7358 35.6625C28.3281 35.3496 21.0918 30.6562 18.4419 28.3616C17.7285 27.7358 16.9131 26.4842 18.5438 25.024C22.2129 21.5822 26.5955 17.3059 29.2454 14.5941C30.4685 13.3426 31.6915 10.4222 26.5955 13.9683L12.2248 23.8767C12.2248 23.8767 10.5941 24.9197 7.53646 23.981C4.47886 23.0423 0.911662 21.7908 0.911662 21.7908C0.911662 21.7908 -1.53442 20.2263 2.6443 18.5575Z" fill="white"/>
</svg>
